<svg width="256" height="59" viewBox="0 0 256 59" fill="none" xmlns="http://www.w3.org/2000/svg">
<path fill-rule="evenodd" clip-rule="evenodd" d="M0.227921 0V29.8541L34.7442 18.5309L0.227921 0Z" fill="white"/>
<path fill-rule="evenodd" clip-rule="evenodd" d="M33.7623 58.5385L0.227921 29.8535H68.2798L33.7623 58.5385Z" fill="white" fill-opacity="0.2"/>
<path fill-rule="evenodd" clip-rule="evenodd" d="M33.7622 46.4062L41.0439 52.4724L33.7622 58.5385L26.4806 52.4724L33.7622 46.4062Z" fill="white" fill-opacity="0.25098"/>
<path fill-rule="evenodd" clip-rule="evenodd" d="M68.2798 0V29.8541L33.7622 18.5309L68.2798 0Z" fill="white"/>
<path fill-rule="evenodd" clip-rule="evenodd" d="M0 29.8543L33.7623 46.4069L68.2799 29.8543L34.1399 18.2109L0 29.8543Z" fill="white" fill-opacity="0.8"/>
<path d="M88.4688 25.0156C88.4688 24.6094 88.4323 24.2396 88.3594 23.9062C88.2865 23.5729 88.1302 23.2656 87.8906 22.9844C87.6615 22.7031 87.3229 22.4219 86.875 22.1406C86.4375 21.8594 85.8646 21.5677 85.1562 21.2656C84.3125 20.9115 83.4948 20.5365 82.7031 20.1406C81.9115 19.7344 81.1979 19.2656 80.5625 18.7344C79.9271 18.2031 79.4219 17.5781 79.0469 16.8594C78.6823 16.1302 78.5 15.276 78.5 14.2969C78.5 13.3385 78.6719 12.4688 79.0156 11.6875C79.3698 10.9062 79.8698 10.2396 80.5156 9.6875C81.1615 9.125 81.9167 8.69271 82.7812 8.39062C83.6562 8.08854 84.6302 7.9375 85.7031 7.9375C87.1615 7.9375 88.4219 8.23958 89.4844 8.84375C90.5573 9.44792 91.3854 10.276 91.9688 11.3281C92.5625 12.3802 92.8594 13.5885 92.8594 14.9531H88.2969C88.2969 14.3073 88.2031 13.7396 88.0156 13.25C87.8385 12.75 87.5521 12.3594 87.1562 12.0781C86.7604 11.7969 86.25 11.6562 85.625 11.6562C85.0417 11.6562 84.5573 11.776 84.1719 12.0156C83.7969 12.2448 83.5156 12.5625 83.3281 12.9688C83.151 13.3646 83.0625 13.8125 83.0625 14.3125C83.0625 14.6875 83.151 15.026 83.3281 15.3281C83.5156 15.6198 83.7708 15.8854 84.0938 16.125C84.4167 16.3542 84.7969 16.5781 85.2344 16.7969C85.6823 17.0156 86.1719 17.2292 86.7031 17.4375C87.7344 17.8438 88.6458 18.2917 89.4375 18.7812C90.2292 19.2604 90.8906 19.8021 91.4219 20.4062C91.9531 21 92.3542 21.6719 92.625 22.4219C92.8958 23.1719 93.0312 24.026 93.0312 24.9844C93.0312 25.9323 92.8646 26.7969 92.5312 27.5781C92.2083 28.349 91.7344 29.0156 91.1094 29.5781C90.4844 30.1302 89.7292 30.5573 88.8438 30.8594C87.9688 31.1615 86.9896 31.3125 85.9062 31.3125C84.8542 31.3125 83.8594 31.1667 82.9219 30.875C81.9844 30.5729 81.1562 30.1198 80.4375 29.5156C79.7292 28.901 79.1719 28.125 78.7656 27.1875C78.3594 26.2396 78.1562 25.1198 78.1562 23.8281H82.7344C82.7344 24.5156 82.8021 25.1042 82.9375 25.5938C83.0729 26.0729 83.2812 26.4583 83.5625 26.75C83.8438 27.0312 84.1875 27.2448 84.5938 27.3906C85.0104 27.526 85.4844 27.5938 86.0156 27.5938C86.6198 27.5938 87.099 27.4792 87.4531 27.25C87.8177 27.0208 88.0781 26.7135 88.2344 26.3281C88.3906 25.9427 88.4688 25.5052 88.4688 25.0156ZM105.188 8.25V31H100.641V8.25H105.188ZM110.844 8.25V12.0469H95.0938V8.25H110.844ZM123.719 8.25H128.281V23.875C128.281 25.625 127.958 27.0521 127.312 28.1562C126.677 29.25 125.797 30.0521 124.672 30.5625C123.547 31.0625 122.26 31.3125 120.812 31.3125C119.354 31.3125 118.057 31.0625 116.922 30.5625C115.786 30.0521 114.901 29.25 114.266 28.1562C113.641 27.0521 113.328 25.625 113.328 23.875V8.25H117.891V23.875C117.891 24.8646 118 25.625 118.219 26.1562C118.448 26.6875 118.776 27.0521 119.203 27.25C119.641 27.4375 120.177 27.5312 120.812 27.5312C121.458 27.5312 121.99 27.4375 122.406 27.25C122.833 27.0521 123.156 26.6875 123.375 26.1562C123.604 25.625 123.719 24.8646 123.719 23.875V8.25ZM137.719 31H133.703L133.734 27.2188H137.719C138.823 27.2188 139.682 27.0208 140.297 26.625C140.911 26.2292 141.344 25.6042 141.594 24.75C141.854 23.8958 141.984 22.776 141.984 21.3906V17.8438C141.984 16.7917 141.917 15.901 141.781 15.1719C141.646 14.4323 141.417 13.8385 141.094 13.3906C140.771 12.9323 140.339 12.5938 139.797 12.375C139.255 12.1562 138.583 12.0469 137.781 12.0469H133.625V8.25H137.781C139.094 8.25 140.286 8.46354 141.359 8.89062C142.432 9.31771 143.354 9.94271 144.125 10.7656C144.896 11.5781 145.49 12.5833 145.906 13.7812C146.323 14.9792 146.531 16.3438 146.531 17.875V21.3906C146.531 22.9323 146.323 24.2969 145.906 25.4844C145.49 26.6719 144.896 27.6771 144.125 28.5C143.365 29.3125 142.443 29.9323 141.359 30.3594C140.276 30.7865 139.062 31 137.719 31ZM136.359 8.25V31H131.781V8.25H136.359ZM152.562 8.25L156.031 18.5L159.469 8.25H164.453L158.328 22.7344V31H153.719V22.7344L147.594 8.25H152.562ZM174.312 22.9844H169.656V19.1875H174.297C174.964 19.1875 175.5 19.0417 175.906 18.75C176.312 18.4583 176.609 18.0573 176.797 17.5469C176.984 17.026 177.078 16.4427 177.078 15.7969C177.078 15.1406 176.984 14.526 176.797 13.9531C176.609 13.3802 176.312 12.9219 175.906 12.5781C175.5 12.224 174.969 12.0469 174.312 12.0469H171.125V31H166.562V8.25H174.312C175.844 8.25 177.161 8.57292 178.266 9.21875C179.37 9.86458 180.214 10.7552 180.797 11.8906C181.391 13.0156 181.688 14.3073 181.688 15.7656C181.688 17.224 181.391 18.4948 180.797 19.5781C180.203 20.6615 179.354 21.5 178.25 22.0938C177.156 22.6875 175.844 22.9844 174.312 22.9844ZM190.234 12.3125L185.344 31H180.516L187.625 8.25H190.641L190.234 12.3125ZM194.094 31L189.172 12.3125L188.719 8.25H191.781L198.953 31H194.094ZM194.266 22.5156V26.3125H184V22.5156H194.266ZM213.75 27.2188V31H204.297V27.2188H213.75ZM205.703 8.25V31H201.125V8.25H205.703Z" fill="white"/>
</svg>
